Coordinates
version=1
nRows=8
nColumns=36
inDegrees=yes

Units are S.I. units (second, meters, Newtons, ...)
If the header above contains a line with 'inDegrees', this indicates whether rotational values are in degrees (yes) or radians (no).

endheader
time	pelvis_tilt	pelvis_list	pelvis_rotation	pelvis_tx	pelvis_ty	pelvis_tz	hip_flexion_r	hip_adduction_r	hip_rotation_r	knee_angle_r	knee_angle_r_beta	ankle_angle_r	subtalar_angle_r	mtp_angle_r	hip_flexion_l	hip_adduction_l	hip_rotation_l	knee_angle_l	knee_angle_l_beta	ankle_angle_l	subtalar_angle_l	mtp_angle_l	lumbar_extension	lumbar_bending	lumbar_rotation	arm_flex_r	arm_add_r	arm_rot_r	elbow_flex_r	pro_sup_r	arm_flex_l	arm_add_l	arm_rot_l	elbow_flex_l	pro_sup_l
      2.43750000	    -13.35388064	     -0.41020174	     -0.68601281	      0.29448264	      0.83904132	     -0.05884367	     45.86940830	     -0.58774266	      4.99224337	     60.18141188	      1.05036379	     16.16653943	     -9.18625784	     -7.49999987	     40.38267547	     -1.42861698	      6.29556027	     59.66029903	      1.04126865	     19.98195011	    -11.07922730	     -7.49999987	    -20.96927417	     -0.01528631	     -4.21275112	     -7.93510481	    -15.95310599	    -48.94143625	     31.06762225	     78.30855089	     -8.73266392	    -22.41429002	    -26.45744850	      2.00483133	     75.51640199
      2.44166670	    -12.85116702	     -0.28828499	     -0.83278592	      0.29891128	      0.84498065	     -0.05787204	     44.48750618	     -0.81662293	      4.74163824	     58.96395380	      1.02911513	     15.21857609	     -9.25641215	     -7.49999987	     38.91708995	     -1.46578176	      6.04567818	     58.21076768	      1.01596956	     18.90431745	    -10.96116536	     -7.49999987	    -20.61263752	      0.20825007	     -4.01510391	     -8.62557596	    -16.16802159	    -47.91352817	     31.54008158	     76.67417604	     -9.70297749	    -23.05302449	    -27.58825174	      1.80318655	     73.70154985
      2.44583330	    -12.61357497	     -0.34826970	     -0.74290316	      0.30263279	      0.84801326	     -0.05965115	     43.62623575	     -1.12380739	      4.32894566	     58.10929016	      1.01419844	     14.47374174	     -8.87456718	     -7.49999987	     38.03117658	     -1.66446607	      5.79904630	     57.30427155	      1.00014821	     18.21747103	    -10.70539903	     -7.49999987	    -19.93661621	      0.53107953	     -5.22461786	     -7.88492023	    -16.98707242	    -44.15516477	     30.01303143	     76.66776093	    -11.91215342	    -23.56573252	    -32.90625867	      1.79411330	     71.40506337
      2.45000000	    -12.27401906	     -0.28315248	     -0.87168643	      0.30555012	      0.85489598	     -0.06047531	     42.47731597	     -1.39566139	      4.21701457	     56.85198057	      0.99225425	     13.41719257	     -8.77495123	     -7.49999987	     36.63619542	     -1.70550280	      5.58822170	     55.88478838	      0.97537356	     17.78870522	    -10.18649440	     -7.49999987	    -19.47379354	      0.52442930	     -5.69605514	     -9.17582243	    -17.59126733	    -44.75343573	     32.54340297	     76.59037153	    -13.79655416	    -24.63076584	    -34.83115709	      1.66344160	     70.90503429
      2.45416670	    -12.25730268	     -0.28389912	     -1.00131754	      0.30869907	      0.86150504	     -0.05846663	     41.65514823	     -1.51574185	      3.69270700	     55.62432591	      0.97082763	     12.50576774	     -8.52709267	     -7.49999987	     35.69430265	     -1.91140060	      5.26983055	     54.36863945	      0.94891177	     17.06673732	     -9.84763217	     -7.49999987	    -18.62802956	      0.51285478	     -5.42034287	    -12.07170091	    -17.80145652	    -47.72984075	     36.94421967	     76.38925224	    -14.98400799	    -25.47515926	    -50.53298961	      2.38000781	     68.01847397
      2.45833330	    -12.20777030	     -0.29609051	     -0.99229472	      0.31224914	      0.87112427	     -0.05886076	     40.45530639	     -1.67233846	      3.22614289	     53.90734655	      0.94086069	     11.21861172	     -8.36517903	     -7.49999987	     34.61624419	     -2.09538581	      5.01138390	     52.62081962	      0.91840656	     15.70786625	     -9.76921935	     -7.49999987	    -17.84168554	      0.48912309	     -5.51736136	    -14.55063836	    -18.53167861	    -48.18324517	     40.12838134	     74.20177958	    -16.39878193	    -26.48110399	    -51.76750229	      2.50607502	     66.76349153
      2.46250000	    -11.89264170	     -0.27598803	     -1.09517087	      0.31636057	      0.87204524	     -0.06120172	     39.37473590	     -1.98631355	      2.96892669	     52.78261629	      0.92123044	     10.69567175	     -7.49374163	     -7.49999987	     33.48283360	     -2.12621467	      4.81083380	     51.41609921	      0.89738022	     15.28100395	     -9.09596188	     -7.49999987	    -17.49015460	      0.48760924	     -5.50232532	    -15.82947705	    -19.25202531	    -49.41086134	     41.41984133	     78.21350593	    -17.62677906	    -26.13768974	    -77.22591357	      6.72555636	     83.55135058
      2.46666670	    -11.96880682	     -0.33458196	     -1.02425254	      0.31819876	      0.88161792	     -0.05921375	     38.35471820	     -2.04326224	      2.59357192	     50.89238925	      0.88823976	      9.59719198	     -6.95895028	     -7.49999987	     32.66284471	     -2.25966552	      4.74103161	     49.68511035	      0.86716876	     13.79198148	     -8.82099288	     -7.49999987	    -16.81771539	      0.37849903	     -5.19253705	    -18.37308556	    -20.18052663	    -50.09139627	     43.51222845	     76.20413873	    -18.41638173	    -26.99991432	    -79.20165243	      8.15203820	     80.81556268
